<svg xmlns="http://www.w3.org/2000/svg" xmlns:xlink="http://www.w3.org/1999/xlink" t="1573632571168" class="icon" viewBox="0 0 1024 1024" version="1.1" p-id="2314" width="200" height="200">
	<defs>
		<style type="text/css" />
	</defs>
	<path d="M299.264 210.336a62.88 62.88 0 0 0-88.736 0.192 62.592 62.592 0 0 0-0.192 88.736L423.072 512l-212.736 212.736c-24.32 24.32-24.352 64.16 0.192 88.736 24.736 24.704 64.32 24.64 88.736 0.192L512 600.928l212.736 212.736c24.32 24.32 64.16 24.352 88.736-0.192 24.704-24.736 24.64-64.32 0.192-88.736L600.928 512l212.736-212.736c24.32-24.32 24.352-64.16-0.192-88.736a62.592 62.592 0 0 0-88.736-0.192L512 423.072 299.264 210.336z" fill="#2B2E33" fill-opacity=".6" p-id="2315" />
</svg>
