<?xml version="1.0" encoding="UTF-8"?>
<svg width="510px" height="257px" viewBox="0 0 510 257" version="1.1" xmlns="http://www.w3.org/2000/svg" xmlns:xlink="http://www.w3.org/1999/xlink">
    <title>量角器备份</title>
    <g id="尺规工具" stroke="none" stroke-width="1" fill="none" fill-rule="evenodd">
        <g id="所有工具" transform="translate(-2816.000000, -113.000000)">
            <g id="编组-6" transform="translate(2816.000000, 113.000000)">
                <path d="M255,2.72848411e-12 C395.832277,2.72848411e-12 510,114.166847 510,254.999 L0,254.999 L0.0341627145,250.783109 C2.2860143,111.895458 115.575715,2.72848411e-12 255,2.72848411e-12 Z" id="形状" fill="#F8F8F8" opacity="0.601563953"></path>
                <path d="M255,28 C380.368341,28 482,129.631278 482,255 L28,255 L28.0304115,251.247015 C30.035001,127.609288 130.885048,28 255,28 Z" id="形状" fill="#FFFFFF" opacity="0.200000003"></path>
                <path d="M506.038168,210.226484 L506.211816,211.211292 L478.673992,216.066238 C478.617214,215.73775 478.55973,215.409503 478.501542,215.0815 L506.038168,210.226484 Z M3.96183197,210.226484 L31.4985248,215.081825 C31.4404094,215.409417 31.3829967,215.737251 31.3262882,216.065327 L3.7881838,211.211292 L3.96183197,210.226484 Z M494.449669,167.314359 L494.791689,168.254052 L468.53859,177.809791 L468.196305,176.869609 L468.196305,176.869609 L494.449669,167.314359 Z M15.5503316,167.314359 L41.804092,176.869053 L41.4617054,177.809505 L41.4617054,177.809505 L15.2083114,168.254052 L15.5503316,167.314359 Z M34.4143882,127.066487 L58.6307894,141.048327 C58.4632238,141.336465 58.2962743,141.625005 58.1299426,141.913946 L33.9143882,127.932513 L34.4143882,127.066487 Z M475.585612,127.066487 L476.085612,127.932513 L451.869366,141.912373 C451.703199,141.623723 451.536415,141.335473 451.369016,141.047624 L475.585612,127.066487 Z M59.9808269,90.7057801 L81.4267164,108.700676 C81.2118441,108.955346 80.9975221,109.210495 80.7837521,109.466122 L59.33332,91.4680655 C59.4023515,91.3855573 59.4714342,91.3030934 59.5405681,91.220674 L59.9808269,90.7057801 Z M450.023055,90.7015686 C450.118142,90.8143218 450.213134,90.9271586 450.308029,91.0400789 L450.661961,91.4718245 L429.216229,109.465861 C429.002392,109.210155 428.788002,108.954927 428.573061,108.700178 L450.023055,90.7015686 Z M418.527176,59.3370392 L418.847108,59.5972946 L419.296899,59.9757251 L401.298126,81.4255149 C401.04328,81.2104962 400.787953,80.9960285 400.532149,80.7821137 L418.527176,59.3370392 Z M91.4728246,59.3370392 L109.467598,80.7824576 C109.21197,80.9962258 108.95682,81.2105461 108.702149,81.4254167 L90.7067802,59.9798269 L91.3225024,59.4551988 L91.4728246,59.3370392 Z M127.933513,33.9133881 L141.914817,58.1293023 C141.625876,58.2956328 141.337335,58.4625811 141.049198,58.6301454 L127.067487,34.4133881 L127.933513,33.9133881 Z M382.066487,33.9133881 L382.932513,34.4133881 L368.951203,58.6303165 C368.663025,58.4627287 368.374445,58.2957571 368.085464,58.1294035 L382.066487,33.9133881 Z M168.255052,15.2073113 L177.810265,41.4612707 C177.496735,41.5746272 177.183525,41.6886546 176.870638,41.8033511 L167.315359,15.5493315 L168.255052,15.2073113 Z M341.744948,15.2073113 L342.684641,15.5493315 L333.12914,41.8032498 C332.816307,41.6885738 332.503152,41.5745667 332.189675,41.4612302 L341.744948,15.2073113 Z M298.787708,3.7871837 L299.772516,3.96083188 L294.917403,31.4982686 C294.5894,31.4400823 294.261154,31.3826003 293.932666,31.3258243 L298.787708,3.7871837 Z M211.212292,3.7871837 L216.068151,31.3256856 C215.739834,31.3824308 215.411759,31.4398813 215.083926,31.4980355 L210.227485,3.96083188 L211.212292,3.7871837 Z M255,0 L255.499184,0.004 L255.499184,28.003 L255,28 C254.832665,28 254.665373,28.0001811 254.498123,28.000543 L254.499067,0.000481545391 L255,0 Z" id="形状结合" fill="#000000" opacity="0.5"></path>
                <path d="M429.425036,224.748858 L307.287241,246.28697 C307.232779,245.957686 307.175281,245.629426 307.114778,245.302221 L429.252925,223.766074 C429.311196,224.093358 429.368567,224.420954 429.425036,224.748858 Z M80.7473228,223.765227 L202.885222,245.302221 C202.82478,245.629095 202.767338,245.957021 202.712925,246.285969 L80.5750841,224.748712 C80.6266011,224.449569 80.6788689,224.150683 80.7318855,223.852055 L80.7473228,223.765227 L80.7473228,223.765227 Z M88.80151,193.975044 L205.35642,236.397903 C205.23941,236.710026 205.125259,237.023547 205.013999,237.338433 L88.4597609,194.913729 C88.5728193,194.600422 88.6867366,194.287526 88.80151,193.975044 Z M421.540929,194.915226 L304.986001,237.338433 C304.874741,237.023547 304.76059,236.710026 304.64358,236.397903 L421.198173,193.97377 C421.313287,194.287174 421.42754,194.600994 421.540929,194.915226 Z M101.939672,166.052015 L209.345636,228.063688 C209.176174,228.35029 209.009335,228.638626 208.84515,228.928663 L101.438825,166.917626 C101.604982,166.628574 101.771932,166.340036 101.939672,166.052015 Z M408.260521,166.396366 L408.311574,166.484541 L408.311574,166.484541 L408.561483,166.917871 L408.561483,166.917871 L301.154284,228.927663 C300.990091,228.637626 300.823243,228.34929 300.653773,228.062688 L408.059893,166.05098 C408.126895,166.166026 408.193771,166.281155 408.260521,166.396366 Z M119.730115,140.840628 L214.722267,220.549917 C214.505548,220.803058 214.291174,221.058265 214.079179,221.315506 L119.086116,141.607307 L119.086116,141.607307 L119.730115,140.840628 L119.730115,140.840628 Z M390.913959,141.607212 L295.919998,221.314508 C295.707994,221.057268 295.49361,220.802062 295.276882,220.548923 L390.269642,140.840158 C390.485123,141.095226 390.699897,141.350911 390.913959,141.607212 Z M141.607526,119.085886 L221.315506,214.079179 C221.058579,214.290916 220.80368,214.505025 220.550843,214.721474 L140.842212,119.728733 L141.607526,119.085886 L141.607526,119.085886 Z M369.157218,119.728147 L289.448094,214.720564 C289.195278,214.504145 288.940401,214.290065 288.683496,214.078357 L368.392531,119.085831 C368.648038,119.299231 368.902935,119.513337 369.157218,119.728147 Z M166.917048,101.439048 L228.928663,208.84515 C228.638626,209.009335 228.35029,209.176174 228.063688,209.345636 L166.05181,101.939684 C166.339708,101.772015 166.628121,101.605136 166.917048,101.439048 Z M343.946881,101.938873 L281.935716,209.345284 C281.648775,209.175627 281.360095,209.008597 281.069711,208.84423 L343.081196,101.437992 C343.370272,101.604161 343.658835,101.771122 343.946881,101.938873 Z M194.916192,88.4587478 L237.338433,205.013999 C237.023547,205.125259 236.710026,205.23941 236.397903,205.35642 L193.976543,88.8008345 C194.289346,88.6859468 194.602563,88.5719169 194.916192,88.4587478 Z M316.024177,88.8010836 L273.600096,205.35567 C273.288251,205.238778 272.975012,205.124741 272.660409,205.01359 L315.084078,88.4588301 C315.397857,88.572054 315.711225,88.6861395 316.024177,88.8010836 Z M224.750761,80.5746423 L246.287833,202.712616 C245.95826,202.767121 245.629712,202.824666 245.302221,202.885222 L223.766489,80.7470073 L223.931223,80.7177584 C224.204187,80.6694269 224.477367,80.621721 224.750761,80.5746423 Z M286.233849,80.7470653 L264.696462,202.884979 C264.369075,202.824451 264.040632,202.766931 263.711164,202.712451 L285.249067,80.5746107 C285.577638,80.6311906 285.9059,80.6886764 286.233849,80.7470653 Z M255,78 L255.500084,78.004 L255.499103,202.002301 C255.332917,202.000768 255.166548,202 255,202 L254.498184,202.004 L254.498073,78.0006966 C254.665327,78.0002323 254.832637,78 255,78 Z" id="形状结合" fill="#000000" opacity="0.100000001"></path>
                <path d="M255,52 C367.113538,52 458,142.886121 458,255 L52,255 L52.0271962,251.643807 C53.8198467,141.07791 144.007334,52 255,52 Z M255,78 C158.223143,78 79.5867629,155.668916 78.0237129,252.073664 L78.0237129,252.073664 L78,255 L432,255 C432,157.245534 352.754169,78 255,78 Z" id="形状结合" fill="#B1B1B1" opacity="0.140000001"></path>
                <path d="M0.0517218168,250.049 L8.05026356,250.188264 L8.03309063,250.916356 L8.03026356,251.188264 L0.0317218168,251.049 L0.0341627145,250.783109 L0.0517218168,250.049 Z M509.970021,251.04863 L501.97118,251.187947 C501.966131,250.854232 501.96042,250.520677 501.954049,250.187284 L509.952897,250.04803 C509.959245,250.381408 509.964954,250.714941 509.970021,251.04863 Z M0.170036619,245.600152 L8.16535928,245.877857 C8.15324463,246.211515 8.14179178,246.545342 8.13100201,246.879336 L0.135721817,246.600615 C0.146519524,246.266965 0.157958189,245.933477 0.170036619,245.600152 Z M509.864313,246.600728 L501.86904,246.879738 C501.858252,246.545747 501.846801,246.211923 501.834689,245.878269 L509.829998,245.600149 C509.842077,245.933513 509.853515,246.26704 509.864313,246.600728 Z M509.682048,242.15299 L501.692782,242.572278 C501.676249,242.238641 501.659054,241.905179 501.641198,241.571891 L509.630469,241.152682 C509.648302,241.485948 509.665495,241.819384 509.682048,242.15299 Z M0.369571905,241.152846 L8.35886354,241.571629 C8.34100789,241.904888 8.32381283,242.238321 8.30727965,242.57193 L0.317986724,242.153239 C0.334540973,241.819605 0.351736435,241.486141 0.369571905,241.152846 Z M509.423108,237.709649 L501.442129,238.266778 C501.419885,237.934264 501.396982,237.601929 501.373423,237.269777 L509.354249,236.710375 C509.377841,237.04329 509.400795,237.376382 509.423108,237.709649 Z M0.645820653,236.710313 L8.62667297,237.269299 C8.60311317,237.601437 8.58021005,237.933757 8.55796491,238.266257 L0.576981325,237.709232 C0.599288339,237.376083 0.622235188,237.04311 0.645820653,236.710313 Z M509.087257,233.270614 L501.117193,233.968633 C501.089156,233.636127 501.06046,233.303808 501.031107,232.971678 L509.001183,232.273778 C509.030511,232.605875 509.059203,232.938154 509.087257,233.270614 Z M0.998876513,232.274003 L8.96898382,232.971503 L8.88293656,233.967958 L0.912805551,233.270771 C0.940858522,232.938333 0.969549252,232.606076 0.998876513,232.274003 Z M1.42894964,227.843782 L9.38579944,228.680743 C9.35067804,229.012312 9.31621266,229.344076 9.28240465,229.676035 L1.32566593,228.83799 C1.35945891,228.506399 1.39388723,228.174996 1.42894964,227.843782 Z M508.674447,228.838221 L500.71756,229.67484 C500.683812,229.343482 500.64941,229.012317 500.614353,228.681348 L508.571139,227.843746 C508.60621,228.175049 508.640646,228.506541 508.674447,228.838221 Z M1.93597157,223.42227 L9.87725136,224.39747 C9.83637506,224.728255 9.79615277,225.059242 9.75658582,225.390431 L1.81533654,224.414997 C1.85491417,224.083893 1.89512627,223.752983 1.93597157,223.42227 Z M508.184756,224.414914 L500.243531,225.390588 C500.203959,225.059347 500.163732,224.728308 500.12285,224.397472 L508.064066,223.421723 C508.10493,223.752591 508.145161,224.083655 508.184756,224.414914 Z M2.5199125,219.010875 L10.443214,220.12409 L10.3053118,221.1143 L10.3053118,221.1143 L2.38213608,220.0002 C2.42743066,219.670224 2.47335655,219.340448 2.5199125,219.010875 Z M507.61789,219.999558 L499.694797,221.114291 C499.649455,220.783808 499.603459,220.453534 499.556811,220.123469 L507.480056,219.009818 C507.526631,219.339529 507.572577,219.669443 507.61789,219.999558 Z M3.18117403,214.608007 L11.0838984,215.860151 L10.9286454,216.848201 L10.9286454,216.848201 L3.0259303,215.596003 C3.07704763,215.266462 3.12879597,214.937129 3.18117403,214.608007 Z M506.97417,215.595835 L499.071425,216.847872 L498.916124,215.859514 L506.818909,214.607717 C506.871293,214.93688 506.923047,215.266253 506.97417,215.595835 Z M4.73381995,205.843497 L12.5884898,207.370152 C12.5245976,207.697208 12.4613509,208.024494 12.3987509,208.352011 L4.54426882,206.82439 C4.60682772,206.497204 4.67001186,206.170239 4.73381995,205.843497 Z M505.455862,206.824299 L497.601324,208.351654 C497.538768,208.024367 497.475566,207.697308 497.411719,207.370481 L505.26642,205.843956 C505.330191,206.170514 505.393338,206.497296 505.455862,206.824299 Z M5.62537183,201.481946 L13.4521782,203.146311 C13.3825426,203.472261 13.31355,203.798449 13.2452018,204.124874 L5.41842347,202.460372 C5.48678267,202.134 5.55576589,201.807857 5.62537183,201.481946 Z M504.5816,202.459733 L496.754819,204.124248 C496.686542,203.798163 496.617622,203.472314 496.54806,203.146703 L504.374852,201.482247 C504.44439,201.807846 504.513307,202.133675 504.5816,202.459733 Z M503.630894,198.111356 L495.834174,199.912059 C495.76015,199.587088 495.685485,199.262361 495.61018,198.937879 L503.406906,197.137204 C503.482189,197.461684 503.556852,197.786402 503.630894,198.111356 Z M6.593409,197.136574 L14.3901134,198.937318 C14.3147356,199.262109 14.2399985,199.587146 14.1659034,199.912427 L6.3691765,198.111779 C6.44329907,197.786473 6.51804367,197.461405 6.593409,197.136574 Z M502.603996,193.780573 L494.839693,195.716797 C494.759902,195.392905 494.679472,195.069266 494.598405,194.745879 L502.362704,192.809637 C502.443753,193.133038 502.524184,193.456683 502.603996,193.780573 Z M7.63774257,192.808562 L15.4020202,194.744865 C15.3209979,195.068065 15.2406124,195.391517 15.160865,195.71522 L7.39629944,193.780087 C7.47616126,193.456001 7.55664275,193.132159 7.63774257,192.808562 Z M8.75751443,188.501478 L16.4870128,190.572669 L16.2288395,191.538613 L8.49941625,189.467145 C8.58483471,189.145005 8.67086788,188.823116 8.75751443,188.501478 Z M501.500955,189.467853 L493.771427,191.538951 L493.513002,190.572059 L493.513002,190.572059 L501.242532,188.500962 C501.329288,188.823007 501.41543,189.145305 501.500955,189.467853 Z M500.322036,185.174517 L492.629879,187.380684 C492.538638,187.059422 492.446763,186.738426 492.354255,186.417698 L500.046971,184.213469 C500.13927,184.53356 500.230959,184.85391 500.322036,185.174517 Z M9.95340384,184.212837 L17.6459676,186.417571 C17.5534487,186.738335 17.4615625,187.059367 17.3703104,187.380667 L9.67802588,185.174972 C9.76920606,184.854002 9.86099917,184.53329 9.95340384,184.212837 Z M11.2242024,179.947117 L18.8770619,182.286171 C18.7790944,182.604673 18.6817537,182.92345 18.5850412,183.242501 L10.9324605,180.902542 C11.0291009,180.583803 11.1263487,180.265327 11.2242024,179.947117 Z M499.067904,180.903091 L491.415086,183.242288 C491.318339,182.923124 491.220963,182.604233 491.12296,182.285616 L498.775827,179.946565 C498.873794,180.265142 498.971153,180.583984 499.067904,180.903091 Z M12.569973,175.704051 L20.1810501,178.175826 C20.0775351,178.492427 19.9746426,178.80931 19.872374,179.126472 L12.2613381,176.654589 C12.3636127,176.337472 12.4664914,176.020625 12.569973,175.704051 Z M497.738829,176.654475 L490.127839,179.126522 C490.025569,178.809351 489.922674,178.492462 489.819157,178.175853 L497.430101,175.703647 C497.533614,176.020317 497.636524,176.33726 497.738829,176.654475 Z M496.335031,172.429403 L488.76893,175.035696 L488.443259,174.089694 L488.443259,174.089694 L496.009721,171.484453 C496.118757,171.799157 496.227194,172.114141 496.335031,172.429403 Z M13.9905038,171.484413 L21.5565526,174.090827 C21.4475467,174.405381 21.3391587,174.720224 21.2313899,175.035354 L13.664929,172.430135 C13.7728531,172.114615 13.8813784,171.799374 13.9905038,171.484413 Z M17.052478,163.125137 L24.5234824,165.992618 C24.4033015,166.303606 24.2837319,166.614898 24.164775,166.926492 L16.694104,164.058145 C16.8129701,163.746849 16.9324285,163.435846 17.052478,163.125137 Z M493.305917,164.057624 L485.835156,166.925753 C485.716248,166.614291 485.596729,166.303131 485.476599,165.992276 L492.947773,163.125215 C493.067745,163.435725 493.187127,163.746529 493.305917,164.057624 Z M18.6935595,158.986332 L26.1133291,161.983801 C25.9876235,162.292816 25.8625255,162.602142 25.7380365,162.911779 L18.3187384,159.913143 C18.4430908,159.603905 18.5680316,159.294968 18.6935595,158.986332 Z M491.681663,159.913583 L484.261807,162.910851 C484.137336,162.601262 484.012257,162.291984 483.886569,161.983017 L491.306865,158.986823 C491.432385,159.295442 491.557318,159.604362 491.681663,159.913583 Z M489.984793,155.798612 L482.618109,158.924154 C482.48833,158.617066 482.357948,158.310296 482.226964,158.003844 L489.593153,154.87713 C489.724285,155.183981 489.854831,155.491142 489.984793,155.798612 Z M20.407163,154.876925 L27.7730966,158.004219 C27.6421301,158.310631 27.5117653,158.617361 27.3820036,158.924408 L20.0155969,155.79823 C20.1455338,155.49082 20.2760563,155.183718 20.407163,154.876925 Z M488.215525,151.713206 L480.90474,154.967187 C480.769624,154.662506 480.633911,154.35815 480.4976,154.05412 L487.808002,150.799275 C487.944423,151.103603 488.080264,151.408247 488.215525,151.713206 Z M22.192551,150.798558 L29.5024789,154.054443 C29.3661845,154.358438 29.2304867,154.662759 29.0953871,154.967404 L21.7849471,151.712663 C21.9202347,151.407646 22.0561032,151.102944 22.192551,150.798558 Z M24.0486061,146.75354 L31.3010465,150.135355 C31.1593752,150.437047 31.0182962,150.739073 30.8778111,151.041431 L23.6258796,147.658522 C23.7662151,147.35654 23.9071244,147.054879 24.0486061,146.75354 Z M486.374658,147.659177 L479.122125,151.040807 C478.981634,150.738438 478.840549,150.436401 478.698871,150.134698 L485.951346,146.752939 C486.093025,147.054696 486.234129,147.356775 486.374658,147.659177 Z M484.463427,143.639069 L477.271379,147.147287 C477.125541,146.84729 476.979114,146.547632 476.832098,146.248316 L484.024566,142.740954 C484.171422,143.039996 484.317709,143.339368 484.463427,143.639069 Z M25.9755338,142.741233 L33.1674724,146.249656 C33.0206155,146.548654 32.8743452,146.847992 32.7286631,147.147669 L25.5367607,143.639167 C25.6824493,143.339527 25.8287074,143.040215 25.9755338,142.741233 Z M482.481767,139.652583 L475.351974,143.285418 C475.201065,142.988348 475.049573,142.691623 474.897499,142.395246 L482.026708,138.76127 C482.178959,139.058037 482.330646,139.355142 482.481767,139.652583 Z M27.9729604,138.762381 L35.102679,142.395346 C34.9506769,142.691584 34.7992558,142.988169 34.6484173,143.2851 L27.5182816,139.652955 C27.6692764,139.355761 27.8208365,139.058903 27.9729604,138.762381 Z M480.430635,135.701541 L473.366061,139.459387 L472.895479,138.576194 L479.960641,134.819458 C480.117864,135.113142 480.27453,135.40717 480.430635,135.701541 Z M30.0396066,134.819442 L37.1047423,138.576213 C36.9473854,138.870102 36.7906057,139.164346 36.6344046,139.458945 L29.5692858,135.702141 C29.7254994,135.407565 29.8822734,135.113331 30.0396066,134.819442 Z M478.311549,131.788623 L471.312528,135.666936 C471.151443,135.375562 470.989786,135.084548 470.827559,134.793896 L477.826091,130.914698 C477.988464,131.205656 478.150284,131.496965 478.311549,131.788623 Z M32.1749759,130.913217 L39.1731261,134.793084 C39.0107727,135.08396 38.8489902,135.375198 38.6877803,135.666797 L31.6889625,131.788132 C31.8504114,131.496143 32.0124163,131.204504 32.1749759,130.913217 Z M36.6477735,123.217671 L43.5069691,127.337723 C43.3342793,127.623198 43.1621512,127.909051 42.9905863,128.195281 L36.1320408,124.074153 C36.303408,123.788295 36.4753194,123.5028 36.6477735,123.217671 Z M473.867931,124.073704 L467.009936,128.195764 C466.838514,127.909772 466.666529,127.624154 466.493984,127.338914 L473.351838,123.21663 C473.524412,123.501957 473.696444,123.787649 473.867931,124.073704 Z M471.546287,120.276529 L464.761161,124.517213 C464.584677,124.234101 464.407636,123.951373 464.230039,123.66903 L471.015107,119.42826 C471.192706,119.710644 471.369766,119.993401 471.546287,120.276529 Z M38.9843841,119.42945 L45.7701217,123.669142 L45.2396077,124.516351 L38.4539247,120.276575 C38.6302066,119.993829 38.8070269,119.711454 38.9843841,119.42945 Z M41.3868688,115.682334 L48.0976699,120.039427 C47.9153592,120.318351 47.7335972,120.597666 47.5523855,120.877371 L40.8421346,116.519434 C41.0231812,116.240024 41.2047597,115.96099 41.3868688,115.682334 Z M469.158538,116.520103 L462.448202,120.877921 C462.266959,120.598166 462.085165,120.318801 461.902822,120.039828 L468.613283,115.682202 C468.795567,115.961124 468.977319,116.240425 469.158538,116.520103 Z M43.8547801,111.976967 L50.4877069,116.451478 C50.3006498,116.727057 50.1141351,117.003033 49.9281643,117.279407 L43.294562,112.805896 C43.4807737,112.529201 43.6675136,112.252891 43.8547801,111.976967 Z M466.706038,112.806434 L460.072295,117.279748 C459.886064,117.002987 459.699288,116.726624 459.511968,116.450661 L466.145695,111.977316 C466.333003,112.253303 466.519785,112.529676 466.706038,112.806434 Z M46.3864432,108.315768 L52.9398949,112.905669 C52.74793,113.178145 52.5565022,113.451027 52.3656132,113.724313 L45.8114837,109.135374 C46.0026143,108.861779 46.194268,108.588576 46.3864432,108.315768 Z M464.188269,109.134683 L457.634444,113.724068 C457.443322,113.450449 457.25166,113.177236 457.059459,112.904429 L463.613984,108.316039 C463.805933,108.588528 463.997362,108.86141 464.188269,109.134683 Z M48.9802585,104.70083 L55.4535203,109.402953 C55.2566848,109.672264 55.0603813,109.941989 54.8646113,110.212125 L48.3922372,105.508782 C48.5877296,105.239066 48.7837371,104.969749 48.9802585,104.70083 Z M461.607773,105.508474 L455.135333,110.211736 L454.547073,109.403456 L454.547073,109.403456 L461.019533,104.700225 C461.216128,104.969242 461.412209,105.238659 461.607773,105.508474 Z M458.964352,101.927395 L452.574689,106.742326 C452.374504,106.475975 452.173792,106.210042 451.972556,105.944528 L458.362332,101.129748 C458.563514,101.395225 458.764188,101.661108 458.964352,101.927395 Z M51.6376776,101.130041 L58.0280067,105.94408 C57.8265368,106.209902 57.6255926,106.476143 57.4251757,106.742804 L51.0354042,101.928028 C51.2356527,101.661627 51.436411,101.395631 51.6376776,101.130041 Z M456.259336,98.3931718 L449.955238,103.319433 C449.750164,103.056228 449.544568,102.793449 449.338452,102.531097 L455.643346,97.6058556 C455.849179,97.8678817 456.054509,98.1303209 456.259336,98.3931718 Z M54.3570329,97.6056646 L60.6616808,102.53121 L60.0456538,103.318572 L53.7410333,98.3929921 C53.9458633,98.1301373 54.151197,97.8676944 54.3570329,97.6056646 Z M453.493518,94.9067362 L447.275853,99.9414971 C447.066324,99.6820032 446.85628,99.422942 446.645723,99.1643152 L452.863364,94.1295241 C453.073913,94.3881745 453.283965,94.6472457 453.493518,94.9067362 Z M57.1369565,94.1294082 L63.3544318,99.164393 C63.1439715,99.4229017 62.9340238,99.6818443 62.7245902,99.9412193 L56.5069687,94.9064136 C56.7164669,94.6469923 56.9264633,94.38799 57.1369565,94.1294082 Z M447.781979,88.0801173 L441.744036,93.3288318 L441.087654,92.57439 L447.1248,87.3247648 C447.344345,87.5761147 447.563406,87.8278994 447.781979,88.0801173 Z M62.8745527,87.325757 L68.9125207,92.5744327 L68.2563726,93.3286047 L68.2563726,93.3286047 L62.2182852,88.0800656 C62.4365562,87.8281968 62.6553125,87.5767601 62.8745527,87.325757 Z M444.837695,84.7416167 L438.892678,90.0952739 C438.670007,89.8471302 438.446842,89.5994398 438.223183,89.3522042 L444.168107,83.9984486 C444.391782,84.2457312 444.614978,84.4934544 444.837695,84.7416167 Z M65.8317362,83.9988598 L71.7773431,89.3518522 L71.1074745,90.0953369 L71.1074745,90.0953369 L65.1617545,84.7424709 C65.3846021,84.4941604 65.6079299,84.2462895 65.8317362,83.9988598 Z M441.836832,81.4556931 L435.985947,86.912005 C435.75887,86.6676155 435.531304,86.4236866 435.303251,86.1802199 L441.154349,80.7241383 C441.382316,80.967543 441.609811,81.2113951 441.836832,81.4556931 Z M68.8461532,80.7238279 L74.6967839,86.1804007 C74.4689251,86.4236604 74.2415528,86.6673814 74.0146686,86.9115623 L68.1632105,81.4558753 C68.3903846,81.2114125 68.6180326,80.9673962 68.8461532,80.7238279 Z M71.9161225,77.5024194 L77.6709922,83.0598578 C77.4388419,83.2992385 77.207172,83.5390878 76.9759841,83.7794041 L71.2210433,78.222038 C71.4522699,77.9817121 71.6839635,77.7418388 71.9161225,77.5024194 Z M438.779436,78.22232 L433.023664,83.7788293 C432.792629,83.5386739 432.561112,83.2989848 432.329116,83.0597636 L438.083723,77.5020466 C438.316094,77.7416834 438.547999,77.9817751 438.779436,78.22232 Z M75.0414669,74.3347629 L80.6978978,79.9923429 C80.4617517,80.2275433 80.2260789,80.4632186 79.9908809,80.6993672 L74.3344503,75.0417806 C74.5696631,74.8056491 74.8053358,74.569976 75.0414669,74.3347629 Z M435.66604,75.0420686 L430.008249,80.6982965 C429.773156,80.4622562 429.537588,80.2266887 429.301547,79.9915956 L434.958471,74.3344991 C435.194787,74.5698955 435.430644,74.8057525 435.66604,75.0420686 Z M78.2213644,71.2216914 L83.77933,76.97604 C83.5390143,77.2072286 83.2991657,77.4388991 83.0597856,77.67105 L77.5030064,71.9155533 C77.7420072,71.6838016 77.9814603,71.4525138 78.2213644,71.2216914 Z M432.497486,71.9158381 L426.940073,77.6707266 C426.700764,77.4386462 426.460987,77.2070459 426.220743,76.9759272 L431.778206,71.2210875 C432.018418,71.452205 432.258179,71.683789 432.497486,71.9158381 Z M81.4553875,68.1636637 L86.910943,74.0152154 C86.6668528,74.2420179 86.423222,74.4693082 86.1800522,74.6970847 L80.7243443,68.8456696 C80.9675791,68.6178626 81.2112607,68.3905268 81.4553875,68.1636637 Z M429.275378,68.8452282 L423.818764,74.6958003 C423.575715,74.4681407 423.332205,74.2409669 423.088237,74.0142804 L428.544818,68.1636759 C428.788783,68.3903884 429.032304,68.617573 429.275378,68.8452282 Z M84.7417982,65.1623583 L90.0943406,71.108327 C89.8462881,71.3309187 89.5986884,71.5540049 89.3515432,71.7775842 L83.9989594,65.8316462 C84.2461326,65.6080721 84.493746,65.3849756 84.7417982,65.1623583 Z M426.001333,65.8317397 L420.647631,71.7766719 C420.400395,71.5530134 420.152704,71.3298483 419.90456,71.1071781 L425.258418,65.1623835 C425.506495,65.3850236 425.754134,65.6081428 426.001333,65.8317397 Z M88.0795589,62.2187243 L93.3282775,68.2566025 C93.0762506,68.4749844 92.8246701,68.6938679 92.5735379,68.9132516 L87.3250761,62.8751475 C87.5761371,62.6558551 87.8276319,62.4370469 88.0795589,62.2187243 Z M422.674302,62.8744438 L417.426441,68.9130779 C417.175408,68.6937824 416.923928,68.4749866 416.672002,68.256692 L421.920693,62.2187848 C422.172328,62.4368538 422.423531,62.6554073 422.674302,62.8744438 Z M415.87062,57.1368388 L410.835511,63.3541444 C410.576884,63.1435878 410.317823,62.9335443 410.058329,62.7240154 L415.093663,56.5068921 C415.353068,56.7163767 415.612054,56.9263594 415.87062,57.1368388 Z M94.9063883,56.5069891 L99.9413941,62.7243726 C99.6820195,62.9338063 99.4230773,63.1437541 99.164569,63.3542145 L94.12964,57.1367678 C94.3881364,56.9263447 94.647053,56.716418 94.9063883,56.5069891 Z M412.393756,54.3564466 L407.468547,60.6612785 C407.206558,60.4554481 406.944142,60.2501361 406.681302,60.0453439 L411.606261,53.740322 C411.869172,53.9451935 412.13167,54.1505688 412.393756,54.3564466 Z M98.3928605,53.7411358 L103.319099,60.0451561 C103.056219,60.2499785 102.793765,60.455321 102.531737,60.661182 L97.6055334,54.3571359 C97.8675631,54.1512999 98.1300059,53.945966 98.3928605,53.7411358 Z M101.927455,51.0358349 L106.742873,57.4250262 C106.476302,57.6253765 106.21015,57.8262536 105.944418,58.0276562 L101.129727,51.6379153 C101.395231,51.4367134 101.661141,51.2360194 101.927455,51.0358349 Z M408.870678,51.6381 L404.055339,58.0273535 C403.789883,57.8261615 403.524007,57.6254938 403.257714,57.4253519 L408.072236,51.0354827 C408.338789,51.2358453 408.604937,51.4367182 408.870678,51.6381 Z M405.30008,48.9808103 L400.59727,55.453469 C400.328168,55.2567863 400.058654,55.0606348 399.788729,54.865016 L404.491577,48.3923857 C404.761477,48.5880118 405.030978,48.7841538 405.30008,48.9808103 Z M105.509401,48.3917883 L110.212344,54.8643463 L109.403173,55.4532551 L104.700445,48.9805396 C104.969698,48.7837736 105.23935,48.5875227 105.509401,48.3917883 Z M401.683349,46.3857161 L397.094393,52.9397234 L396.275751,52.3654424 L396.275751,52.3654424 L400.865702,45.8121324 C401.138642,46.0028069 401.411192,46.194002 401.683349,46.3857161 Z M109.134711,45.8119474 L113.723224,52.366258 C113.450211,52.5569596 113.1776,52.748199 112.905395,52.9399744 L108.316751,46.3857504 C108.589012,46.1939628 108.861666,46.0026946 109.134711,45.8119474 Z M398.022418,43.8542653 L393.548516,50.4874865 C393.272639,50.300227 392.996363,50.113511 392.71969,49.9273402 L397.194554,43.2947689 C397.470893,43.4807414 397.746848,43.6672407 398.022418,43.8542653 Z M112.806343,43.2942613 L117.279643,49.9278815 L116.451377,50.4876531 L116.451377,50.4876531 L111.978307,43.8538703 C112.253934,43.6668079 112.529946,43.4802711 112.806343,43.2942613 Z M116.520081,40.8417152 L120.877927,47.5518936 C120.59789,47.7333204 120.318243,47.9152988 120.038988,48.0978273 L115.682239,41.3869309 C115.961141,41.2046604 116.240423,41.0229213 116.520081,40.8417152 Z M394.318661,41.3874296 L389.960989,48.0977254 C389.681683,47.9151641 389.401984,47.733153 389.121895,47.5516938 L393.480506,40.8420074 C393.760269,41.023282 394.039655,41.2050899 394.318661,41.3874296 Z M390.571082,38.9846366 L386.331787,45.7704896 C386.049779,45.5931017 385.767386,45.4162683 385.484611,45.2399907 L389.723813,38.4540857 C390.006607,38.6303979 390.289031,38.8072487 390.571082,38.9846366 Z M120.275958,38.4543089 L124.516698,45.2392527 C124.233668,45.4156876 123.95102,45.5926795 123.668757,45.7702267 L119.428836,38.9847707 C119.710839,38.8074127 119.993213,38.6305916 120.275958,38.4543089 Z M386.782453,36.6477724 L382.661904,43.5065264 C382.376661,43.3339781 382.091041,43.1619906 381.805046,42.9905654 L385.926603,36.13242 C386.21225,36.3036613 386.497533,36.4754459 386.782453,36.6477724 Z M124.074203,36.132011 L128.194794,42.9907326 L127.337504,43.5069574 L127.337504,43.5069574 L123.216977,36.6481928 C123.502354,36.4755881 123.788096,36.303527 124.074203,36.132011 Z M131.788559,31.6887265 L135.666648,38.6877063 C135.375138,38.8488675 135.083989,39.0106008 134.793203,39.1729048 L130.913899,32.174595 C131.205101,32.0120841 131.496655,31.8501274 131.788559,31.6887265 Z M379.085578,32.1742404 L375.206915,39.1729095 C374.915932,39.0104964 374.624586,38.8486546 374.33288,38.6873858 L378.212397,31.6891933 C378.503807,31.8503223 378.794868,32.0120052 379.085578,32.1742404 Z M135.70307,29.5687932 L139.459345,36.6340314 C139.164648,36.7902842 138.870306,36.9471161 138.576319,37.1045256 L134.820151,30.0392269 C135.114114,29.8818558 135.40842,29.7250441 135.70307,29.5687932 Z M375.179824,30.0391566 L371.423622,37.1044389 C371.12958,36.9470002 370.835181,36.7901393 370.540429,36.6338577 L374.297738,29.5691658 C374.59211,29.7252702 374.886139,29.8819342 375.179824,30.0391566 Z M371.23727,27.9727295 L367.604571,35.1024229 C367.308194,34.9503496 367.01147,34.7988579 366.714399,34.6479493 L370.347204,27.5183122 C370.644228,27.6692205 370.940917,27.8206934 371.23727,27.9727295 Z M139.653288,27.5181126 L143.28556,34.6480188 C142.988608,34.7988676 142.692002,34.9502991 142.395742,35.1023117 L138.762431,27.9729346 C139.059047,27.8207626 139.355999,27.6691548 139.653288,27.5181126 Z M367.258903,25.9755541 L363.75211,33.1681274 C363.452707,33.0210688 363.152963,32.8745985 362.85288,32.7287179 L366.360533,25.5365698 C366.660319,25.6823282 366.959776,25.8286568 367.258903,25.9755541 Z M143.638814,25.5369324 L147.147648,32.7285052 C146.847639,32.874349 146.547969,33.0207823 146.24864,33.1678037 L142.740881,25.9757069 C143.039863,25.82888 143.339174,25.6826214 143.638814,25.5369324 Z M363.24682,24.0487332 L359.865122,31.30106 C359.563085,31.1592264 359.260714,31.0179865 358.958011,30.8773418 L362.340833,23.6255393 C362.64315,23.7660293 362.945147,23.9070944 363.24682,24.0487332 Z M147.659472,23.6254383 L151.041187,30.8777536 C150.738918,31.0181982 150.43698,31.1592362 150.135376,31.3008662 L146.753489,24.0486298 C147.055161,23.9069919 147.357156,23.7659276 147.659472,23.6254383 Z M359.200951,22.1922936 L355.945702,29.5023359 C355.641338,29.365876 355.336648,29.2300142 355.031632,29.094752 L358.28702,21.78477 C358.591979,21.9200311 358.896623,22.0558728 359.200951,22.1922936 Z M151.712906,21.7848395 L154.967574,29.0951388 C154.662842,29.2302769 154.358435,29.3660134 154.054353,29.502347 L150.7988,22.1924425 C151.103186,22.0559949 151.407888,21.9201268 151.712906,21.7848395 Z M155.797991,20.0156976 L158.924435,27.3818184 C158.617476,27.5115427 158.310834,27.6418699 158.00451,27.7727984 L154.876942,20.4071558 C155.18365,20.2760854 155.490667,20.1455988 155.797991,20.0156976 Z M355.123084,20.407134 L351.99598,27.7729762 C351.689197,27.6418509 351.382095,27.5113287 351.074675,27.3814111 L354.201578,20.0154835 C354.509055,20.1454482 354.816224,20.2759989 355.123084,20.407134 Z M159.913973,18.3184043 L162.91184,25.7378373 C162.602204,25.8623259 162.292879,25.9874235 161.983865,26.1131288 L158.98616,18.6936294 C159.295129,18.5679656 159.604401,18.4428901 159.913973,18.3184043 Z M351.013496,18.6934602 L348.014804,26.1125592 C347.706505,25.9871471 347.397895,25.8623398 347.088977,25.7381387 L350.085613,18.3182095 C350.395208,18.4427037 350.704503,18.5677877 351.013496,18.6934602 Z M164.057531,16.6943385 L166.926106,24.164748 C166.614157,24.2838405 166.302512,24.4035472 165.991172,24.5238666 L163.124468,17.0527365 C163.435195,16.9326789 163.746217,16.8132124 164.057531,16.6943385 Z M346.874967,17.0524926 L344.006551,24.5229621 L343.074078,24.1647943 L343.074078,24.1647943 L345.941558,16.6939657 C346.252988,16.8128822 346.564124,16.9323916 346.874967,17.0524926 Z M172.429782,13.6650499 L175.035435,21.2311902 C174.720306,21.3389584 174.405464,21.4473459 174.090911,21.5563513 L171.485309,13.9901936 C171.799854,13.8812136 172.114679,13.7728319 172.429782,13.6650499 Z M338.515705,13.9905256 L335.910143,21.556698 C335.595431,21.4476364 335.280431,21.3391932 334.965143,21.23137 L337.569755,13.6648728 C337.885351,13.7728225 338.200668,13.8813739 338.515705,13.9905256 Z M334.297499,12.5704632 L331.82365,20.1806929 C331.506957,20.0771487 331.189981,19.9742273 330.872725,19.8719302 L333.346672,12.261729 C333.663886,12.3640363 333.980829,12.4669481 334.297499,12.5704632 Z M176.653772,12.2616018 L179.12678,19.8721049 C178.809618,19.9743726 178.492737,20.0772643 178.176136,20.1807784 L175.703235,12.5702398 C176.019808,12.4667572 176.336654,12.3638774 176.653772,12.2616018 Z M330.053571,11.2244001 L327.713679,18.8768347 L326.757264,18.5847903 L329.097044,10.9323216 C329.416151,11.0290729 329.734994,11.1264328 330.053571,11.2244001 Z M180.902977,10.9323287 L183.243046,18.5847092 C182.923996,18.6814205 182.605219,18.77876 182.286717,18.8767262 L179.945554,11.2246832 C180.264429,11.1266228 180.58357,11.0291708 180.902977,10.9323287 Z M325.787097,9.95337306 L323.581598,17.6455528 L322.619357,17.3701433 L324.824797,9.67794905 C325.145822,9.76914438 325.466589,9.86095283 325.787097,9.95337306 Z M185.174659,9.67811492 L187.380438,17.3702123 C187.059474,17.4613694 186.738775,17.5531593 186.418345,17.6455805 L184.213524,9.95320591 C184.533644,9.86089816 184.854022,9.76920072 185.174659,9.67811492 Z M321.498818,8.75758437 L319.42846,16.4871481 C319.106509,16.4003934 318.784297,16.3142732 318.461827,16.2287889 L320.532174,8.4992263 C320.85464,8.58473014 321.176855,8.67084995 321.498818,8.75758437 Z M189.467084,8.49943234 L191.538847,16.228619 C191.21636,16.3141069 190.894132,16.4002309 190.572164,16.4869893 L188.500417,8.75780012 C188.822388,8.67106243 189.144611,8.58493939 189.467084,8.49943234 Z M193.780259,7.39625703 L195.715435,15.1606588 C195.391733,15.2404052 195.068281,15.3207898 194.745083,15.4018112 L192.809735,7.63744868 C193.132999,7.55643396 193.456507,7.4760363 193.780259,7.39625703 Z M317.190468,7.63749155 L315.253985,15.4015698 C314.930598,15.3205028 314.606959,15.2400734 314.283068,15.1602829 L316.219525,7.39619625 C316.543417,7.47600954 316.867065,7.55644174 317.190468,7.63749155 Z M312.862891,6.59327839 L311.062993,14.3900308 L310.08881,14.1660323 L311.888733,6.36928699 C312.213689,6.44333053 312.538409,6.51799476 312.862891,6.59327839 Z M198.11221,6.36907837 L199.91285,14.16566 C199.587569,14.2397538 199.262533,14.3144897 198.937742,14.3898663 L197.137253,6.59325127 C197.462001,6.51790612 197.786987,6.44318138 198.11221,6.36907837 Z M202.460241,5.41845091 L204.12472,13.2450938 C203.798279,13.3134448 203.472076,13.3824403 203.146111,13.452079 L201.481592,5.62544747 C201.807578,5.55582518 202.133794,5.48682589 202.460241,5.41845091 Z M308.517839,5.62532073 L306.854177,13.4521357 C306.528565,13.3825722 306.202715,13.3136503 305.876629,13.2453716 L307.540347,5.41856913 C307.866407,5.48686393 308.192238,5.55578156 308.517839,5.62532073 Z M304.157114,4.73393522 L302.629404,12.5882645 L301.649231,12.3988519 L301.649231,12.3988519 L303.175772,4.54429602 C303.503108,4.60688371 303.830223,4.67009721 304.157114,4.73393522 Z M206.824471,4.54425339 L208.352052,12.3986102 L207.369987,12.5883872 L207.369987,12.5883872 L205.843365,4.73384565 C206.170178,4.67002358 206.497213,4.60682573 206.824471,4.54425339 Z M215.59612,3.02591217 L216.848222,10.9285268 C216.518742,10.9796127 216.189477,11.0313497 215.860429,11.0837366 L214.609367,3.18095744 C214.938076,3.12864713 215.266994,3.07696495 215.59612,3.02591217 Z M295.392098,3.18118839 L294.139388,11.0837053 C293.810485,11.0313419 293.481366,10.9796277 293.152031,10.9285641 L294.403735,3.02588768 C294.733399,3.07702354 295.062853,3.12879087 295.392098,3.18118839 Z M220.000918,2.38203764 L221.114397,10.3051931 C220.784034,10.3505185 220.45388,10.3964972 220.123936,10.4431279 L219.010593,2.5199524 C219.340499,2.47334906 219.670607,2.42737706 220.000918,2.38203764 Z M290.98923,2.51992579 L289.876762,10.4432251 L288.885194,10.3051356 L289.999489,2.382092 C290.329604,2.42740517 290.659519,2.47335018 290.98923,2.51992579 Z M286.577317,1.9359195 L285.602447,9.87714271 L284.610334,9.7565815 L285.584125,1.81523065 C285.915385,1.85482563 286.246449,1.89505566 286.577317,1.9359195 Z M224.414916,1.81534621 L225.390625,9.75646781 C225.059521,9.79602345 224.728619,9.8362341 224.397919,9.87709843 L223.422189,1.93598154 C223.752902,1.89513614 224.083812,1.85492394 224.414916,1.81534621 Z M282.155287,1.42885043 L281.319098,9.38569594 C280.987713,9.35059511 280.656133,9.31614959 280.324358,9.28236071 L281.160811,1.32554314 C281.492491,1.35934364 281.823984,1.39377982 282.155287,1.42885043 Z M228.839102,1.32555261 L229.675984,9.28232641 C229.344026,9.31613348 229.012263,9.3505979 228.680695,9.38571837 L227.843893,1.42893788 C228.17544,1.39384034 228.507177,1.35937816 228.839102,1.32555261 Z M233.270313,0.912844198 L233.968083,8.88285489 L232.97163,8.96889849 L232.273789,0.998895399 C232.605781,0.969575037 232.937956,0.940890895 233.270313,0.912844198 Z M277.726249,0.998898321 L277.027819,8.96884948 C276.695773,8.93950452 276.363538,8.9108166 276.031115,8.88278704 L276.729412,0.91282064 C277.061873,0.940875764 277.394152,0.969568734 277.726249,0.998898321 Z M273.289279,0.645791541 L272.730544,8.62660046 C272.397976,8.60301142 272.065226,8.58008077 271.732295,8.55780983 L272.291247,0.57701319 C272.6241,0.599301013 272.956777,0.622227535 273.289279,0.645791541 Z M237.708716,0.577015869 L238.266537,8.55788805 C237.934038,8.58013171 237.601719,8.60303336 237.269582,8.6265917 L236.709798,0.645857177 C237.042594,0.622271052 237.375567,0.599323544 237.708716,0.577015869 Z M242.152895,0.318003797 L242.572366,8.30721379 C242.238758,8.32374524 241.905325,8.34093858 241.572067,8.3587925 L241.152502,0.369590299 C241.485797,0.35175439 241.819261,0.334558487 242.152895,0.318003797 Z M268.847334,0.369581434 L268.428767,8.35883718 L267.428633,8.30726322 L267.847026,0.317999781 C268.180631,0.334552963 268.514067,0.351747249 268.847334,0.369581434 Z M246.600453,0.135727057 L246.879928,8.13095329 C246.545934,8.14174108 246.212108,8.15319195 245.878451,8.16530463 L245.599991,0.170042481 C245.933315,0.157963844 246.266803,0.146524972 246.600453,0.135727057 Z M264.400862,0.170073365 L264.121704,8.16531024 C263.78838,8.15320945 263.454888,8.14176915 263.121228,8.13099061 L263.399274,0.13571818 C263.733299,0.146527905 264.067163,0.157980032 264.400862,0.170073365 Z M251.04878,0.0299912152 L251.18874,8.02880771 C250.854972,8.03385645 250.521364,8.03956722 250.187919,8.04593876 L250.048025,0.047122122 C250.381454,0.0407714556 250.715039,0.035060761 251.04878,0.0299912152 Z M258.949722,0.032 L255,2.72848411e-12 C256.654444,2.72848411e-12 258.305208,0.0157557731 259.95215,0.0471254576 L259.811879,8.04593489 L258.809264,8.02926372 L258.949722,0.032 Z" id="形状结合" fill="#000000" opacity="0.5"></path>
                <text id="0" opacity="0.5" transform="translate(39.000000, 251.000000) rotate(-90.000000) translate(-39.000000, -251.000000) " font-family="HarmonyOS_Sans_SC_Medium, HarmonyOS Sans SC" font-size="12" font-weight="400" fill="#000000">
                    <tspan x="35.5" y="256.5">0</tspan>
                </text>
                <text id="180" opacity="0.5" transform="translate(64.000000, 245.000000) rotate(-90.000000) translate(-64.000000, -245.000000) " font-family="HarmonyOS_Sans_SC_Medium, HarmonyOS Sans SC" font-size="12" font-weight="400" fill="#000000">
                    <tspan x="53.5" y="250.5">180</tspan>
                </text>
                <text id="170" opacity="0.5" transform="translate(67.102016, 219.833948) rotate(-80.000000) translate(-67.102016, -219.833948) " font-family="HarmonyOS_Sans_SC_Medium, HarmonyOS Sans SC" font-size="12" font-weight="400" fill="#000000">
                    <tspan x="56.6020163" y="225.333948">170</tspan>
                </text>
                <text id="160" opacity="0.5" transform="translate(75.231317, 189.688134) rotate(-70.000000) translate(-75.231317, -189.688134) " font-family="HarmonyOS_Sans_SC_Medium, HarmonyOS Sans SC" font-size="12" font-weight="400" fill="#000000">
                    <tspan x="64.7313175" y="195.188134">160</tspan>
                </text>
                <text id="150" opacity="0.5" transform="translate(89.383975, 159.566987) rotate(-60.000000) translate(-89.383975, -159.566987) " font-family="HarmonyOS_Sans_SC_Medium, HarmonyOS Sans SC" font-size="12" font-weight="400" fill="#000000">
                    <tspan x="78.8839746" y="165.066987">150</tspan>
                </text>
                <text id="140" opacity="0.5" transform="translate(109.555349, 131.474190) rotate(-50.000000) translate(-109.555349, -131.474190) " font-family="HarmonyOS_Sans_SC_Medium, HarmonyOS Sans SC" font-size="12" font-weight="400" fill="#000000">
                    <tspan x="99.0553494" y="136.97419">140</tspan>
                </text>
                <text id="130" opacity="0.5" transform="translate(132.740235, 108.412562) rotate(-40.000000) translate(-132.740235, -108.412562) " font-family="HarmonyOS_Sans_SC_Medium, HarmonyOS Sans SC" font-size="12" font-weight="400" fill="#000000">
                    <tspan x="122.240235" y="113.912562">130</tspan>
                </text>
                <text id="120" opacity="0.5" transform="translate(159.933013, 89.383975) rotate(-30.000000) translate(-159.933013, -89.383975) " font-family="HarmonyOS_Sans_SC_Medium, HarmonyOS Sans SC" font-size="12" font-weight="400" fill="#000000">
                    <tspan x="149.433013" y="94.8839746">120</tspan>
                </text>
                <text id="110" opacity="0.5" transform="translate(192.127826, 74.389297) rotate(-20.000000) translate(-192.127826, -74.389297) " font-family="HarmonyOS_Sans_SC_Medium, HarmonyOS Sans SC" font-size="12" font-weight="400" fill="#000000">
                    <tspan x="181.627826" y="79.8892973">110</tspan>
                </text>
                <text id="100" opacity="0.5" transform="translate(223.318756, 66.428368) rotate(-10.000000) translate(-223.318756, -66.428368) " font-family="HarmonyOS_Sans_SC_Medium, HarmonyOS Sans SC" font-size="12" font-weight="400" fill="#000000">
                    <tspan x="212.818756" y="71.9283682">100</tspan>
                </text>
                <text id="90" opacity="0.5" font-family="HarmonyOS_Sans_SC_Medium, HarmonyOS Sans SC" font-size="12" font-weight="400" fill="#000000">
                    <tspan x="248" y="69">90</tspan>
                </text>
                <text id="80" opacity="0.5" transform="translate(288.181244, 66.428368) rotate(10.000000) translate(-288.181244, -66.428368) " font-family="HarmonyOS_Sans_SC_Medium, HarmonyOS Sans SC" font-size="12" font-weight="400" fill="#000000">
                    <tspan x="281.181244" y="71.9283682">80</tspan>
                </text>
                <text id="70" opacity="0.5" transform="translate(320.349616, 74.473483) rotate(20.000000) translate(-320.349616, -74.473483) " font-family="HarmonyOS_Sans_SC_Medium, HarmonyOS Sans SC" font-size="12" font-weight="400" fill="#000000">
                    <tspan x="313.349616" y="79.9734833">70</tspan>
                </text>
                <text id="60" opacity="0.5" transform="translate(351.507596, 89.547151) rotate(30.000000) translate(-351.507596, -89.547151) " font-family="HarmonyOS_Sans_SC_Medium, HarmonyOS Sans SC" font-size="12" font-weight="400" fill="#000000">
                    <tspan x="344.507596" y="95.0471505">60</tspan>
                </text>
                <text id="50" opacity="0.5" transform="translate(378.700374, 108.575738) rotate(40.000000) translate(-378.700374, -108.575738) " font-family="HarmonyOS_Sans_SC_Medium, HarmonyOS Sans SC" font-size="12" font-weight="400" fill="#000000">
                    <tspan x="371.700374" y="114.075738">50</tspan>
                </text>
                <text id="40" opacity="0.5" transform="translate(401.885259, 132.637366) rotate(50.000000) translate(-401.885259, -132.637366) " font-family="HarmonyOS_Sans_SC_Medium, HarmonyOS Sans SC" font-size="12" font-weight="400" fill="#000000">
                    <tspan x="394.885259" y="138.137366">40</tspan>
                </text>
                <text id="30" opacity="0.5" transform="translate(421.056634, 159.730163) rotate(60.000000) translate(-421.056634, -159.730163) " font-family="HarmonyOS_Sans_SC_Medium, HarmonyOS Sans SC" font-size="12" font-weight="400" fill="#000000">
                    <tspan x="414.056634" y="165.230163">30</tspan>
                </text>
                <text id="20" opacity="0.5" transform="translate(435.209291, 189.851309) rotate(70.000000) translate(-435.209291, -189.851309) " font-family="HarmonyOS_Sans_SC_Medium, HarmonyOS Sans SC" font-size="12" font-weight="400" fill="#000000">
                    <tspan x="428.209291" y="195.351309">20</tspan>
                </text>
                <text id="10" opacity="0.5" transform="translate(443.170221, 223.042239) rotate(80.000000) translate(-443.170221, -223.042239) " font-family="HarmonyOS_Sans_SC_Medium, HarmonyOS Sans SC" font-size="12" font-weight="400" fill="#000000">
                    <tspan x="436.170221" y="228.542239">10</tspan>
                </text>
                <text id="0" opacity="0.5" transform="translate(446.098589, 249.723483) rotate(90.000000) translate(-446.098589, -249.723483) " font-family="HarmonyOS_Sans_SC_Medium, HarmonyOS Sans SC" font-size="12" font-weight="400" fill="#000000">
                    <tspan x="442.598589" y="255.223483">0</tspan>
                </text>
                <text id="10" opacity="0.5" transform="translate(42.441717, 216.451157) rotate(-80.000000) translate(-42.441717, -216.451157) " font-family="HarmonyOS_Sans_SC_Medium, HarmonyOS Sans SC" font-size="12" font-weight="400" fill="#000000">
                    <tspan x="35.4417166" y="221.951157">10</tspan>
                </text>
                <text id="20" opacity="0.5" transform="translate(52.211716, 180.299298) rotate(-70.000000) translate(-52.211716, -180.299298) " font-family="HarmonyOS_Sans_SC_Medium, HarmonyOS Sans SC" font-size="12" font-weight="400" fill="#000000">
                    <tspan x="45.2117162" y="185.799298">20</tspan>
                </text>
                <text id="30" opacity="0.5" transform="translate(67.206393, 148.104484) rotate(-60.000000) translate(-67.206393, -148.104484) " font-family="HarmonyOS_Sans_SC_Medium, HarmonyOS Sans SC" font-size="12" font-weight="400" fill="#000000">
                    <tspan x="60.2063935" y="153.604484">30</tspan>
                </text>
                <text id="40" opacity="0.5" transform="translate(89.234981, 116.911706) rotate(-50.000000) translate(-89.234981, -116.911706) " font-family="HarmonyOS_Sans_SC_Medium, HarmonyOS Sans SC" font-size="12" font-weight="400" fill="#000000">
                    <tspan x="82.2349806" y="122.411706">40</tspan>
                </text>
                <text id="50" opacity="0.5" transform="translate(116.296609, 89.726821) rotate(-40.000000) translate(-116.296609, -89.726821) " font-family="HarmonyOS_Sans_SC_Medium, HarmonyOS Sans SC" font-size="12" font-weight="400" fill="#000000">
                    <tspan x="109.296609" y="95.226821">50</tspan>
                </text>
                <text id="60" opacity="0.5" transform="translate(146.389406, 68.555446) rotate(-30.000000) translate(-146.389406, -68.555446) " font-family="HarmonyOS_Sans_SC_Medium, HarmonyOS Sans SC" font-size="12" font-weight="400" fill="#000000">
                    <tspan x="139.389406" y="74.0554463">60</tspan>
                </text>
                <text id="70" opacity="0.5" transform="translate(180.510552, 52.402789) rotate(-20.000000) translate(-180.510552, -52.402789) " font-family="HarmonyOS_Sans_SC_Medium, HarmonyOS Sans SC" font-size="12" font-weight="400" fill="#000000">
                    <tspan x="173.510552" y="57.9027891">70</tspan>
                </text>
                <text id="80" opacity="0.5" transform="translate(216.656367, 42.273488) rotate(-10.000000) translate(-216.656367, -42.273488) " font-family="HarmonyOS_Sans_SC_Medium, HarmonyOS Sans SC" font-size="12" font-weight="400" fill="#000000">
                    <tspan x="209.656367" y="47.773488">80</tspan>
                </text>
                <text id="90" opacity="0.5" transform="translate(254.822419, 39.171472) rotate(-360.000000) translate(-254.822419, -39.171472) " font-family="HarmonyOS_Sans_SC_Medium, HarmonyOS Sans SC" font-size="12" font-weight="400" fill="#000000">
                    <tspan x="247.822419" y="44.6714717">90</tspan>
                </text>
                <text id="100" opacity="0.5" transform="translate(293.488471, 42.273488) rotate(-350.000000) translate(-293.488471, -42.273488) " font-family="HarmonyOS_Sans_SC_Medium, HarmonyOS Sans SC" font-size="12" font-weight="400" fill="#000000">
                    <tspan x="282.988471" y="47.773488">100</tspan>
                </text>
                <text id="110" opacity="0.5" transform="translate(331.589170, 52.571161) rotate(-340.000000) translate(-331.589170, -52.571161) " font-family="HarmonyOS_Sans_SC_Medium, HarmonyOS Sans SC" font-size="12" font-weight="400" fill="#000000">
                    <tspan x="321.08917" y="58.0711611">110</tspan>
                </text>
                <text id="120" opacity="0.5" transform="translate(364.710316, 68.723818) rotate(-330.000000) translate(-364.710316, -68.723818) " font-family="HarmonyOS_Sans_SC_Medium, HarmonyOS Sans SC" font-size="12" font-weight="400" fill="#000000">
                    <tspan x="354.210316" y="74.2238182">120</tspan>
                </text>
                <text id="130" opacity="0.5" transform="translate(394.803114, 89.895193) rotate(-320.000000) translate(-394.803114, -89.895193) " font-family="HarmonyOS_Sans_SC_Medium, HarmonyOS Sans SC" font-size="12" font-weight="400" fill="#000000">
                    <tspan x="384.303114" y="95.395193">130</tspan>
                </text>
                <text id="140" opacity="0.5" transform="translate(421.864742, 117.080078) rotate(-310.000000) translate(-421.864742, -117.080078) " font-family="HarmonyOS_Sans_SC_Medium, HarmonyOS Sans SC" font-size="12" font-weight="400" fill="#000000">
                    <tspan x="411.364742" y="122.580078">140</tspan>
                </text>
                <text id="150" opacity="0.5" transform="translate(442.893329, 148.272856) rotate(-300.000000) translate(-442.893329, -148.272856) " font-family="HarmonyOS_Sans_SC_Medium, HarmonyOS Sans SC" font-size="12" font-weight="400" fill="#000000">
                    <tspan x="432.393329" y="153.772856">150</tspan>
                </text>
                <text id="160" opacity="0.5" transform="translate(458.888006, 182.467670) rotate(-290.000000) translate(-458.888006, -182.467670) " font-family="HarmonyOS_Sans_SC_Medium, HarmonyOS Sans SC" font-size="12" font-weight="400" fill="#000000">
                    <tspan x="448.388006" y="187.96767">160</tspan>
                </text>
                <text id="170" opacity="0.5" transform="translate(467.848936, 217.658599) rotate(-280.000000) translate(-467.848936, -217.658599) " font-family="HarmonyOS_Sans_SC_Medium, HarmonyOS Sans SC" font-size="12" font-weight="400" fill="#000000">
                    <tspan x="457.348936" y="223.158599">170</tspan>
                </text>
                <text id="180" opacity="0.5" transform="translate(470.690480, 245.847440) rotate(-270.000000) translate(-470.690480, -245.847440) " font-family="HarmonyOS_Sans_SC_Medium, HarmonyOS Sans SC" font-size="12" font-weight="400" fill="#000000">
                    <tspan x="460.19048" y="251.34744">180</tspan>
                </text>
            </g>
        </g>
    </g>
</svg>