<?xml version="1.0" standalone="no"?><!DOCTYPE svg PUBLIC "-//W3C//DTD SVG 1.1//EN" "http://www.w3.org/Graphics/SVG/1.1/DTD/svg11.dtd"><svg t="1572934174162" class="icon" viewBox="0 0 1024 1024" version="1.1" xmlns="http://www.w3.org/2000/svg" p-id="1844" xmlns:xlink="http://www.w3.org/1999/xlink" width="200" height="200"><defs><style type="text/css"></style></defs><path d="M256 448h512v128H256v-128z m-70.208-97.792C224.576 314.08 256 327.552 256 380.608v262.848c0 52.928-31.36 66.56-70.208 30.4l-138.72-129.28a43.84 43.84 0 0 1 0-65.12l138.72-129.248z m652.48-1.376l138.848 129.216a43.84 43.84 0 0 1 0 65.12l-138.88 129.28c-38.816 36.16-70.24 22.528-70.24-30.4v-262.816c0-53.056 31.456-66.56 70.272-30.4z" fill="#2B2E33" fill-opacity=".6" p-id="1845"></path></svg>