<?xml version="1.0" standalone="no"?><!DOCTYPE svg PUBLIC "-//W3C//DTD SVG 1.1//EN" "http://www.w3.org/Graphics/SVG/1.1/DTD/svg11.dtd"><svg t="1572934163480" class="icon" viewBox="0 0 1024 1024" version="1.1" xmlns="http://www.w3.org/2000/svg" p-id="1733" xmlns:xlink="http://www.w3.org/1999/xlink" width="200" height="200"><defs><style type="text/css"></style></defs><path d="M512 928C282.24 928 96 741.76 96 512S282.24 96 512 96s416 186.24 416 416h-128a288 288 0 1 0-288 288 64 64 0 1 1 0 128z m475.104-415.68c35.52 0 45.216 21.664 22.112 47.936l-113.792 129.472c-17.6 20-45.856 20.16-63.424 0l-112.224-128.96c-23.296-26.752-13.472-48.448 22.08-48.448h245.248zM512 608a96 96 0 1 1 0-192 96 96 0 0 1 0 192z" fill="#2B2E33" fill-opacity=".6" p-id="1734"></path></svg>