<svg xmlns="http://www.w3.org/2000/svg" xmlns:xlink="http://www.w3.org/1999/xlink" t="1573632543854" class="icon" viewBox="0 0 1024 1024" version="1.1" p-id="2092" width="200" height="200">
	<defs>
		<style type="text/css" />
	</defs>
	<path d="M297.888 347.328l467.712 208.224-52.064 116.96-467.712-208.256 52.064-116.928zM273.504 229.44c50.112-17.248 73.344 7.84 51.776 56.32l-106.88 240.128c-21.536 48.32-55.776 48.032-76.544-0.8l-74.144-174.528a43.84 43.84 0 0 1 26.496-59.52L273.504 229.44z m596.64 264.096l74.24 174.528a43.84 43.84 0 0 1-26.464 59.52l-179.424 61.6c-50.208 17.28-73.344-8-51.84-56.32l106.912-240.096c21.6-48.512 55.808-48 76.576 0.768z" fill="#2B2E33" fill-opacity=".6" p-id="2093" />
</svg>
