<svg xmlns="http://www.w3.org/2000/svg" xmlns:xlink="http://www.w3.org/1999/xlink" t="1573632521705" class="icon" viewBox="0 0 1024 1024" version="1.1" p-id="1981" width="200" height="200">
	<defs>
		<style type="text/css" />
	</defs>
	<path d="M577.152 833.024v-255.872h255.872v80.928c0 17.76 10.048 22.048 22.464 9.632l132.32-132.352a31.776 31.776 0 0 0 0-44.928l-132.32-132.448c-12.416-12.416-22.464-8.096-22.464 9.632v81.536h-255.872v-256h-128v256h-256v128h256v255.872h-80.768c-17.76 0-22.016 10.016-9.6 22.368l132.448 131.84a31.84 31.84 0 0 0 44.928 0l132.32-131.84c12.416-12.352 8.096-22.368-9.632-22.368h-81.696zM192.512 367.616v290.464c0 17.76-10.016 22.048-22.4 9.632L37.76 535.36a31.776 31.776 0 0 1 0-44.928l132.32-132.448c12.416-12.416 22.464-8.096 22.464 9.632z m465.44-175.072h-290.464c-17.76 0-22.048-10.048-9.632-22.464l132.352-132.32a31.776 31.776 0 0 1 44.928 0l132.448 132.32c12.416 12.416 8.096 22.464-9.632 22.464z" fill="#FFFFFF" fill-opacity=".8" p-id="1982" />
</svg>
